<?xml version="1.0" encoding="utf-8"?>
<!-- Generator: Adobe Illustrator 16.0.3, SVG Export Plug-In . SVG Version: 6.00 Build 0)  -->
<!DOCTYPE svg PUBLIC "-//W3C//DTD SVG 1.1//EN" "http://www.w3.org/Graphics/SVG/1.1/DTD/svg11.dtd">
<svg version="1.1"
	 id="Untitled-Seite_x25_201" xmlns:svg="http://www.w3.org/2000/svg"
	 xmlns="http://www.w3.org/2000/svg" xmlns:xlink="http://www.w3.org/1999/xlink" x="0px" y="0px" width="168px" height="50px"
	 viewBox="0 0 168 50" enable-background="new 0 0 168 50" xml:space="preserve">
<path id="path6" fill="#002557" d="M148.121,18.408h2.252v-2.299h-2.252V18.408z"/>
<path id="path8" fill="#002557" d="M154.268,18.408h2.252v-2.299h-2.252V18.408z"/>
<path id="path10" fill="#002557" d="M116.775,25.916c1.269-0.422,2.347-1.596,2.347-3.426c0-2.158-1.547-3.988-4.224-3.988h-5.112
	v13.092h2.532v-5.256h1.83l2.58,5.256h2.957L116.775,25.916z M114.758,24.227h-2.439v-3.473h2.439c1.08,0,1.83,0.752,1.83,1.736
	C116.588,23.522,115.838,24.227,114.758,24.227z"/>
<path id="path12" fill="#002557" d="M150.701,27.09l1.642-4.74l1.597,4.74H150.701z M151.311,18.502l-4.785,13.092h2.675
	l0.797-2.348h4.646l0.75,2.348h2.676l-4.786-13.092H151.311z"/>
<path id="path14" fill="#002557" d="M63.519,26.994c0,1.502-0.938,2.393-2.299,2.393c-1.361,0-2.252-0.891-2.252-2.393v-8.492
	h-2.534v8.586c0,2.77,2.111,4.6,4.786,4.6c2.675,0,4.833-1.83,4.833-4.6v-8.586h-2.534V26.994z"/>
<path id="path16" fill="#002557" d="M76.47,26.479l-5.161-7.977h-2.301v13.092h2.581v-8.072l5.162,8.072h2.299V18.502h-2.58V26.479z
	"/>
<path id="path18" fill="#002557" d="M82.1,31.594h2.58V18.502H82.1V31.594z"/>
<path id="path20" fill="#002557" d="M96.928,18.502h-2.674l-2.629,8.492l-2.627-8.492h-2.627l4.316,13.092h1.877L96.928,18.502z"/>
<path id="path22" fill="#002557" d="M107.203,20.754c0-0.75,0-1.501,0-2.252c-2.861,0-5.725,0-8.586,0c0,4.348,0,8.697,0,13.045
	c2.861,0,5.725,0,8.586,0c0-0.75,0-1.502,0-2.252c-2.018,0-4.035,0-6.053,0c0-1.064,0-2.127,0-3.191c1.721,0,3.441,0,5.162,0
	c0-0.75,0-1.501,0-2.251c-1.721,0-3.441,0-5.162,0c0-1.033,0-2.065,0-3.098C103.168,20.754,105.186,20.754,107.203,20.754z"/>
<path id="path24" fill="#002557" d="M130.336,27.697c0-1.125-0.327-2.109-1.031-2.768c-0.516-0.516-1.268-0.844-2.486-0.984
	l-1.549-0.234c-0.518-0.094-0.938-0.281-1.221-0.517c-0.234-0.235-0.375-0.61-0.375-0.938c0-0.892,0.656-1.643,2.018-1.643
	c0.892,0,1.877,0.094,2.675,0.893l1.644-1.596c-1.127-1.08-2.439-1.549-4.224-1.549c-2.815,0-4.552,1.643-4.552,3.988
	c0,1.08,0.281,1.924,0.938,2.58c0.563,0.564,1.408,0.893,2.533,1.081l1.549,0.233c0.611,0.094,0.938,0.188,1.174,0.422
	c0.281,0.28,0.422,0.655,0.422,1.127c0,1.03-0.846,1.595-2.346,1.595c-1.174,0-2.299-0.281-3.145-1.078l-1.644,1.643
	c1.269,1.314,2.769,1.736,4.787,1.736C128.225,31.688,130.336,30.232,130.336,27.697L130.336,27.697z"/>
<path id="path26" fill="#002557" d="M135.357,18.502h-2.533v13.092h2.533V18.502z"/>
<path id="path28" fill="#002557" d="M146.947,18.502c-3.129,0-6.256,0-9.385,0c0,0.75,0,1.501,0,2.252c1.143,0,2.283,0,3.426,0
	c0,3.598,0,7.195,0,10.793c0.844,0,1.689,0,2.533,0c0-3.598,0-7.195,0-10.793c1.143,0,2.283,0,3.426,0
	C146.947,20.003,146.947,19.252,146.947,18.502z"/>
<path id="path30" fill="#002557" d="M157.691,20.754c1.143,0,2.283,0,3.426,0c0,3.613,0,7.227,0,10.84c0.846,0,1.689,0,2.535,0
	c0-3.613,0-7.227,0-10.84c1.142,0,2.283,0,3.425,0c0-0.75,0-1.501,0-2.252c-3.128,0-6.257,0-9.386,0
	C157.691,19.252,157.691,20.003,157.691,20.754z"/>
<path id="path32" fill="#002557" d="M64.598,37.178c-0.845-0.893-2.064-1.27-3.426-1.27h-4.739v13.094h4.739
	c1.361,0,2.581-0.375,3.426-1.268c1.501-1.455,1.314-3.379,1.314-5.348C65.912,40.414,66.099,38.633,64.598,37.178z M62.815,45.904
	c-0.424,0.516-1.033,0.797-1.877,0.797h-1.925v-8.492h1.925c0.844,0,1.453,0.281,1.877,0.799c0.469,0.563,0.563,1.406,0.563,3.379
	C63.378,44.402,63.284,45.342,62.815,45.904z"/>
<path id="path34" fill="#002557" d="M75.625,43.371c1.267-0.469,2.393-1.596,2.393-3.426c0-2.205-1.596-4.035-4.27-4.035h-5.114
	v13.092h2.533v-5.209h1.877l2.534,5.209h2.956L75.625,43.371z M73.606,41.635h-2.439v-3.426h2.439c1.126,0,1.83,0.705,1.83,1.736
	C75.437,40.932,74.732,41.635,73.606,41.635z"/>
<path id="path36" fill="#002557" d="M80.739,49.002c2.878,0,5.756,0,8.634,0c0-0.768,0-1.533,0-2.301c-2.033,0-4.066,0-6.1,0
	c0-1.047,0-2.096,0-3.143c1.721,0,3.442,0,5.163,0c0-0.766,0-1.533,0-2.299c-1.721,0-3.441,0-5.163,0c0-1.018,0-2.033,0-3.051
	c2.034,0,4.067,0,6.1,0c0-0.768,0-1.533,0-2.301c-2.878,0-5.756,0-8.634,0C80.739,40.273,80.739,44.637,80.739,49.002z"/>
<path id="path38" fill="#002557" d="M96.881,41.354l-1.548-0.235c-0.517-0.046-0.938-0.281-1.22-0.517
	c-0.282-0.231-0.377-0.608-0.377-0.938c0-0.891,0.658-1.643,2.019-1.643c0.845,0,1.876,0.141,2.675,0.893l1.641-1.596
	c-1.125-1.078-2.438-1.502-4.221-1.502c-2.863,0-4.553,1.643-4.553,3.94c0,1.125,0.281,1.972,0.893,2.58
	c0.608,0.563,1.453,0.938,2.58,1.08l1.549,0.233c0.609,0.095,0.892,0.234,1.174,0.47c0.279,0.235,0.375,0.61,0.375,1.08
	c0,1.077-0.799,1.644-2.301,1.644c-1.219,0-2.346-0.283-3.144-1.128l-1.642,1.644c1.267,1.313,2.768,1.734,4.738,1.734
	c2.77,0,4.881-1.406,4.881-3.939c0-1.174-0.33-2.111-1.032-2.77C98.805,41.869,98.055,41.541,96.881,41.354L96.881,41.354z"/>
<path id="path40" fill="#002557" d="M111.051,37.178c-0.845-0.893-2.111-1.27-3.472-1.27h-4.692v13.094h4.692
	c1.36,0,2.627-0.375,3.472-1.268c1.455-1.455,1.314-3.379,1.314-5.348C112.365,40.414,112.506,38.633,111.051,37.178z
	 M109.268,45.904c-0.422,0.516-1.031,0.797-1.924,0.797h-1.924v-8.492h1.924c0.893,0,1.502,0.281,1.924,0.799
	c0.471,0.563,0.564,1.406,0.564,3.379C109.832,44.402,109.736,45.342,109.268,45.904z"/>
<path id="path42" fill="#002557" d="M115.086,49.002c2.863,0,5.725,0,8.588,0c0-0.768,0-1.533,0-2.301c-2.018,0-4.035,0-6.053,0
	c0-1.047,0-2.096,0-3.143c1.721,0,3.439,0,5.16,0c0-0.766,0-1.533,0-2.299c-1.721,0-3.439,0-5.16,0c0-1.018,0-2.033,0-3.051
	c2.018,0,4.035,0,6.053,0c0-0.768,0-1.533,0-2.301c-2.863,0-5.725,0-8.588,0C115.086,40.273,115.086,44.637,115.086,49.002z"/>
<path id="path44" fill="#002557" d="M133.715,43.934l-5.16-8.022h-2.301v13.092h2.581v-8.024l5.161,8.024h2.3V35.91h-2.581V43.934z"
	/>
<path id="path46" fill="#002557" d="M59.858,14.092c0.845,0,1.689,0,2.534,0c0-3.598,0-7.195,0-10.793c1.142,0,2.284,0,3.426,0
	c0-0.75,0-1.501,0-2.252c-3.128,0-6.257,0-9.386,0c0,0.75,0,1.501,0,2.252c1.142,0,2.284,0,3.426,0
	C59.858,6.896,59.858,10.494,59.858,14.092z"/>
<path id="path48" fill="#002557" d="M76.798,11.839c-2.034,0-4.067,0-6.101,0c0-1.063,0-2.126,0-3.19c1.721,0,3.441,0,5.162,0
	c0-0.751,0-1.502,0-2.253c-1.721,0-3.441,0-5.162,0c0-1.032,0-2.065,0-3.097c2.034,0,4.067,0,6.101,0c0-0.75,0-1.501,0-2.252
	c-2.878,0-5.756,0-8.634,0c0,4.348,0,8.697,0,13.045c2.878,0,5.756,0,8.634,0C76.798,13.341,76.798,12.59,76.798,11.839z"/>
<path id="path50" fill="#002557" d="M88.67,10.104h-2.582c-0.281,1.031-0.938,1.83-2.205,1.83c-0.704,0-1.267-0.234-1.642-0.658
	c-0.517-0.563-0.657-1.172-0.657-3.707c0-2.533,0.141-3.143,0.657-3.707c0.375-0.422,0.938-0.656,1.642-0.656
	c1.268,0,1.924,0.798,2.205,1.83h2.582c-0.47-2.721-2.395-4.129-4.834-4.129c-1.407,0-2.581,0.516-3.519,1.455
	c-1.314,1.313-1.268,2.955-1.268,5.207s-0.047,3.896,1.268,5.209c0.938,0.938,2.111,1.455,3.519,1.455
	C86.275,14.232,88.2,12.824,88.67,10.104L88.67,10.104z"/>
<path id="path52" fill="#002557" d="M93.596,8.648c1.486,0,2.973,0,4.459,0c0,1.814,0,3.628,0,5.443c0.844,0,1.689,0,2.533,0
	c0-4.348,0-8.696,0-13.044c-0.844,0-1.689,0-2.533,0c0,1.783,0,3.567,0,5.35c-1.486,0-2.973,0-4.459,0c0-1.783,0-3.567,0-5.35
	c-0.844,0-1.689,0-2.533,0c0,4.348,0,8.697,0,13.045c0.844,0,1.689,0,2.533,0C93.596,12.277,93.596,10.462,93.596,8.648z"/>
<path id="path54" fill="#002557" d="M106.406,6.067l5.207,8.024h2.254V1.047h-2.535v7.977l-5.207-7.977h-2.254v13.045h2.535V6.067z"
	/>
<path id="path56" fill="#002557" d="M119.686,1.047h-2.535v13.045h2.535V1.047z"/>
<path id="path58" fill="#002557" d="M126.582,11.934c-1.173,0-2.299-0.283-3.143-1.08l-1.644,1.643
	c1.267,1.314,2.769,1.736,4.785,1.736c2.724,0,4.834-1.455,4.834-3.988c0-1.126-0.328-2.112-1.033-2.77
	c-0.516-0.516-1.267-0.844-2.485-0.984l-1.549-0.235c-0.517-0.093-0.938-0.28-1.22-0.516c-0.235-0.281-0.377-0.61-0.377-0.938
	c0-0.892,0.657-1.642,2.019-1.642c0.893,0,1.877,0.093,2.676,0.891l1.643-1.595c-1.127-1.08-2.439-1.549-4.224-1.549
	c-2.815,0-4.552,1.643-4.552,3.988c0,1.08,0.28,1.924,0.938,2.58c0.563,0.563,1.407,0.893,2.533,1.08l1.549,0.234
	c0.608,0.094,0.938,0.188,1.172,0.422c0.283,0.282,0.425,0.657,0.425,1.126C128.93,11.37,128.084,11.934,126.582,11.934
	L126.582,11.934z"/>
<path id="path60" fill="#002557" d="M138.454,14.232c2.394,0,4.317-1.408,4.786-4.129h-2.581c-0.235,1.031-0.938,1.83-2.205,1.83
	c-0.704,0-1.267-0.235-1.644-0.657c-0.47-0.563-0.608-1.173-0.608-3.707c0-2.534,0.14-3.144,0.608-3.707
	c0.377-0.423,0.938-0.657,1.644-0.657c1.267,0,1.97,0.798,2.205,1.83h2.581c-0.469-2.721-2.346-4.129-4.786-4.129
	c-1.454,0-2.628,0.516-3.567,1.455c-1.313,1.313-1.266,2.956-1.266,5.208s-0.047,3.896,1.266,5.208
	C135.826,13.717,137,14.232,138.454,14.232L138.454,14.232z"/>
<path id="path62" fill="#002557" d="M148.214,8.648c1.47,0,2.94,0,4.411,0c0,1.814,0,3.628,0,5.443c0.844,0,1.689,0,2.533,0
	c0-4.348,0-8.696,0-13.044c-0.844,0-1.689,0-2.533,0c0,1.783,0,3.567,0,5.35c-1.471,0-2.941,0-4.411,0c0-1.783,0-3.567,0-5.35
	c-0.86,0-1.721,0-2.581,0c0,4.348,0,8.697,0,13.045c0.86,0,1.721,0,2.581,0C148.214,12.277,148.214,10.462,148.214,8.648z"/>
<path id="path64" fill="#002557" d="M167.123,3.299c0-0.75,0-1.501,0-2.252c-2.877,0-5.756,0-8.633,0c0,4.348,0,8.697,0,13.045
	c2.877,0,5.756,0,8.633,0c0-0.75,0-1.501,0-2.252c-2.033,0-4.066,0-6.1,0c0-1.064,0-2.128,0-3.192c1.721,0,3.441,0,5.162,0
	c0-0.75,0-1.501,0-2.252c-1.721,0-3.441,0-5.162,0c0-1.032,0-2.065,0-3.097C163.057,3.299,165.09,3.299,167.123,3.299z"/>
<path id="path66" fill="#002557" d="M29.97,17.048v15.249H19.787V17.048H5.522L17.159,5.411h15.438l11.636,11.637H29.97z
	 M16.55,3.956L3.786,16.719v1.783h14.546v15.25h13.092v-15.25h14.498v-1.783L33.159,3.956H16.55z"/>
<path id="path68" fill="#002557" d="M47.377,33.893L33.724,47.547H15.986L2.331,33.893V16.156L15.986,2.502h17.737l13.653,13.654
	L47.377,33.893L47.377,33.893z M15.423,1.047L0.877,15.593v18.862l14.546,14.547h18.91l14.499-14.547V15.593L34.333,1.047H15.423z"
	/>
<path id="path70" fill="#002557" d="M34.333,21.411h10.183l-0.048,11.356l-11.87,11.871H17.159L5.241,32.768V21.411h10.182V36.66
	h18.91V21.411z M32.878,35.207h-16v-15.25H3.786V33.33l12.763,12.762H33.16L45.923,33.33V19.957H32.878V35.207z"/>
</svg>
